<svg width="40" height="40" viewBox="0 0 40 40" fill="none" xmlns="http://www.w3.org/2000/svg">
<rect width="40" height="40" rx="20" fill="#7B59CE"/>
<path fill-rule="evenodd" clip-rule="evenodd" d="M17.935 22.5817L17.934 16.9891L23.338 19.795L17.935 22.5817ZM29.8 16.0199C29.8 16.0199 29.604 14.6484 29.005 14.0444C28.244 13.2513 27.392 13.2476 27.001 13.2015C24.202 13 20.004 13 20.004 13H19.996C19.996 13 15.797 13 12.999 13.2015C12.608 13.2476 11.756 13.2513 10.994 14.0444C10.395 14.6484 10.2 16.0199 10.2 16.0199C10.2 16.0199 10 17.631 10 19.2414V20.7517C10 22.3628 10.2 23.9732 10.2 23.9732C10.2 23.9732 10.395 25.3448 10.994 25.9488C11.756 26.7419 12.755 26.717 13.2 26.7997C14.8 26.9527 20 27 20 27C20 27 24.202 26.9938 27.001 26.7922C27.392 26.7456 28.244 26.7419 29.005 25.9488C29.604 25.3448 29.8 23.9732 29.8 23.9732C29.8 23.9732 30 22.3628 30 20.7517V19.2414C30 17.631 29.8 16.0199 29.8 16.0199Z" fill="white"/>
</svg>
