<svg width="40" height="40" viewBox="0 0 40 40" fill="none" xmlns="http://www.w3.org/2000/svg">
<rect width="40" height="40" rx="20" fill="#7B59CE"/>
<path fill-rule="evenodd" clip-rule="evenodd" d="M28.9201 14.5419L25.9212 14.5634C25.6921 14.5311 25.5255 14.6282 25.5255 14.6282C25.5255 14.6282 25.3485 14.7252 25.2652 14.9625C24.7757 16.2674 24.151 17.389 24.151 17.389C22.8181 19.7401 22.2766 19.8695 22.058 19.7185C21.5477 19.3842 21.6831 18.3597 21.6831 17.6263C21.6831 15.3399 22.0163 14.3909 21.0271 14.1428C20.7043 14.0673 20.4648 14.0134 19.6213 14.0026C18.5488 13.9919 17.6428 14.0026 17.1326 14.2615C16.789 14.434 16.5287 14.8223 16.6849 14.8438C16.8827 14.8762 17.3305 14.9733 17.57 15.3076C17.57 15.3076 17.8303 15.7498 17.8719 16.7204C17.9865 19.4058 17.4554 19.7401 17.4554 19.7401C17.0493 19.9666 16.3412 19.5891 15.2999 17.3675C15.2999 17.3675 14.696 16.2674 14.2274 15.0595C14.1441 14.8331 13.9775 14.7144 13.9775 14.7144C13.9775 14.7144 13.79 14.5634 13.5193 14.5203L10.6662 14.5419C10.2288 14.5419 10.0726 14.7468 10.0726 14.7468C10.0726 14.7468 9.91642 14.9193 10.0622 15.2752C12.2906 20.7 14.8313 23.4177 14.8313 23.4177C14.8313 23.4177 17.1534 25.9305 19.7879 25.758H20.9854C21.3499 25.7256 21.5373 25.5207 21.5373 25.5207C21.5373 25.5207 21.7039 25.3266 21.6935 24.9707C21.6727 23.3099 22.4224 23.0618 22.4224 23.0618C23.1513 22.8245 24.0885 24.6687 25.0881 25.3805C25.0881 25.3805 25.8483 25.9198 26.421 25.8011L29.0867 25.758C30.4925 25.7472 29.826 24.5393 29.826 24.5393C29.774 24.4423 29.4408 23.6981 27.8372 22.1559C26.1711 20.549 26.3898 20.8078 28.4099 18.0253C29.6386 16.3321 30.128 15.2968 29.9718 14.8546C29.9718 14.8546 29.826 14.4232 28.9201 14.5419Z" fill="white"/>
</svg>
