<svg width="49" height="23" viewBox="0 0 49 23" fill="none" xmlns="http://www.w3.org/2000/svg">
<path opacity="0.8" fill-rule="evenodd" clip-rule="evenodd" d="M10.127 2.83912C10.7649 2.08748 11.1949 1.04144 11.0777 0C10.1577 0.03588 9.04533 0.59616 8.3859 1.34734C7.79423 2.0125 7.27676 3.07694 7.41643 4.09768C8.44222 4.17496 9.48908 3.59076 10.1275 2.83866L10.127 2.83912ZM12.4268 9.44656C12.4519 12.0857 14.7617 12.9974 14.875 13.0421L14.8791 13.0438L14.8766 13.0517C14.8383 13.1748 14.4713 14.3547 13.6152 15.5728C12.8531 16.6557 12.0627 17.7348 10.8176 17.7574C10.2199 17.7682 9.82039 17.6 9.40497 17.4252C8.96994 17.2422 8.51744 17.0517 7.80156 17.0517C7.05232 17.0517 6.57895 17.2478 6.12283 17.4367C5.72755 17.6004 5.34522 17.7587 4.80752 17.7795C3.60588 17.8236 2.69045 16.6078 1.92248 15.5287C0.353101 13.3207 -0.846254 9.29108 0.764335 6.57064C1.56436 5.21962 2.99361 4.36402 4.54558 4.3424C5.21468 4.32988 5.86259 4.57984 6.42979 4.79866C6.86297 4.96578 7.24908 5.11474 7.5616 5.11474C7.84146 5.11474 8.21679 4.97071 8.6546 4.80271C9.34441 4.53801 10.1893 4.21379 11.0603 4.29962C11.6556 4.324 13.328 4.53376 14.4019 6.06326L14.3943 6.06779C14.2373 6.16058 12.4062 7.24333 12.4268 9.44656ZM20.9285 1.3363C20.4049 1.39389 19.8829 1.46599 19.3633 1.5525V17.5301H20.5127V10.6209C21.0338 10.7327 21.6777 10.7884 22.4434 10.7884C23.2915 10.7884 24.0737 10.6844 24.7913 10.477C25.5084 10.2686 26.1276 9.95256 26.6496 9.52936C27.1724 9.10439 27.5942 8.56755 27.8842 7.958C28.186 7.33424 28.3358 6.60652 28.3358 5.77484C28.3358 5.08714 28.2268 4.47902 28.007 3.9514C27.7967 3.43789 27.4846 2.97274 27.0897 2.58428C26.6336 2.15234 26.0515 1.82022 25.3417 1.58838C24.6328 1.35654 23.7898 1.24062 22.8116 1.24062C22.1826 1.23753 21.554 1.26947 20.9285 1.3363ZM20.5127 9.61354C20.7898 9.69312 21.0993 9.74924 21.4419 9.78098C21.7844 9.81318 22.1508 9.82882 22.5419 9.82882C24.0087 9.82882 25.1457 9.49302 25.9526 8.82142C26.7591 8.14982 27.163 7.16588 27.163 5.87052C27.163 5.24676 27.0572 4.70258 26.8452 4.2389C26.6439 3.78869 26.3329 3.39678 25.9407 3.09948C25.5496 2.80324 25.0853 2.57968 24.5472 2.42742C24.0087 2.27562 23.4138 2.19972 22.7612 2.19972C22.2401 2.19972 21.7917 2.2195 21.4167 2.25952C21.0421 2.29954 20.7403 2.3437 20.5123 2.39154V9.61354H20.5127ZM37.5015 16.1874C37.485 15.7237 37.4772 15.2596 37.4772 14.7959H37.4782V10.2612C37.477 9.72551 37.4237 9.1912 37.3188 8.66594C37.2196 8.14609 37.0158 7.65207 36.7198 7.21418C36.4263 6.7827 36.0228 6.4308 35.5095 6.15894C34.9956 5.88708 34.3316 5.75138 33.5165 5.75138C32.9303 5.74915 32.3464 5.82573 31.7804 5.97908C31.2268 6.13088 30.6882 6.3825 30.1671 6.73394L30.5339 7.5739C30.9415 7.30158 31.3935 7.08998 31.8908 6.93818C32.3881 6.78638 32.8886 6.71048 33.3947 6.71048C34.0624 6.71048 34.5927 6.83054 34.9837 7.07066C35.3748 7.31032 35.6679 7.6061 35.8634 7.95754C36.0571 8.30279 36.1858 8.68094 36.2431 9.07304C36.2999 9.4645 36.3287 9.81272 36.3287 10.1172V10.4291C33.9808 10.3969 32.2242 10.7488 31.0587 11.4848C29.8932 12.2208 29.3107 13.2682 29.3107 14.6275C29.3124 15.0206 29.3828 15.4103 29.5186 15.7789C29.6544 16.1582 29.8664 16.5053 30.1414 16.7987C30.4185 17.0945 30.7729 17.3342 31.2048 17.5182C31.6375 17.7022 32.139 17.7942 32.7091 17.7942C33.1347 17.7981 33.5587 17.7416 33.9685 17.6263C34.3518 17.5145 34.6939 17.3664 34.9956 17.1824C35.297 16.9984 35.5617 16.7941 35.7897 16.5706C36.0178 16.347 36.2051 16.1235 36.3516 15.899H36.4015L36.5723 17.5306H37.6481C37.5661 17.0982 37.5175 16.6511 37.5015 16.1874ZM36.3278 11.3652C35.6788 11.35 35.0295 11.3739 34.3834 11.437C33.7074 11.5005 33.0837 11.6412 32.5136 11.8565C31.9425 12.0727 31.4704 12.3883 31.0958 12.8041C30.7212 13.2199 30.533 13.7719 30.533 14.4601C30.533 15.2748 30.7693 15.8751 31.2428 16.2587C31.7145 16.6423 32.2443 16.8346 32.8314 16.8346C33.304 16.8346 33.7281 16.7711 34.1027 16.6423C34.4777 16.5145 34.8028 16.3424 35.0804 16.1271C35.3579 15.9119 35.5896 15.6671 35.7774 15.3957C35.9651 15.123 36.1075 14.8437 36.206 14.5553C36.2875 14.2352 36.3287 14.0033 36.3287 13.8589V11.3652H36.3278ZM42.707 13.4996L39.7248 6.0145V6.01358H38.5017L42.7321 16.6902C42.8302 16.9142 42.8787 17.0826 42.8787 17.1939C42.8787 17.2739 42.8297 17.4423 42.7321 17.698C42.4546 18.3701 42.1409 18.9419 41.7906 19.4134C41.4403 19.8863 41.1184 20.2653 40.8244 20.5533C40.5093 20.8681 40.1562 21.1421 39.7734 21.3688C39.4568 21.555 39.1301 21.7231 38.7947 21.8725L39.1867 22.8082C39.3173 22.7603 39.5737 22.6444 39.9566 22.4604C40.3399 22.2764 40.7602 21.9839 41.2159 21.5846C41.6168 21.2379 41.9739 20.8432 42.2792 20.4093C42.6262 19.9143 42.9409 19.3973 43.2212 18.8614C43.5577 18.2207 43.8636 17.5643 44.138 16.8944C44.4711 16.0872 44.7932 15.2756 45.1043 14.4596L48.5022 6.01404H47.2804L44.4925 13.4509C44.3134 13.9155 44.1504 14.3676 44.0034 14.8069C43.8569 15.2472 43.7268 15.6432 43.6123 15.9947H43.5633C43.4493 15.6271 43.3188 15.2228 43.1722 14.783C43.0284 14.3512 42.8732 13.9232 42.707 13.4996Z" fill="white"/>
</svg>
