<svg width="40" height="40" viewBox="0 0 40 40" fill="none" xmlns="http://www.w3.org/2000/svg">
<rect width="40" height="40" rx="20" fill="#7B59CE"/>
<path fill-rule="evenodd" clip-rule="evenodd" d="M23.937 14.883C23.937 15.514 24.45 16.026 25.083 16.026C25.716 16.026 26.229 15.514 26.229 14.883C26.229 14.251 25.716 13.739 25.083 13.739C24.45 13.739 23.937 14.251 23.937 14.883ZM16.805 19.967C16.805 18.214 18.23 16.792 19.987 16.792C21.745 16.792 23.169 18.214 23.169 19.967C23.169 21.721 21.745 23.142 19.987 23.142C18.23 23.142 16.805 21.721 16.805 19.967ZM19.987 24.858C17.28 24.858 15.085 22.669 15.085 19.967C15.085 17.266 17.28 15.076 19.987 15.076C22.694 15.076 24.889 17.266 24.889 19.967C24.889 22.669 22.694 24.858 19.987 24.858ZM27.737 12.263C27.353 11.879 26.987 11.641 26.475 11.442C26.088 11.292 25.506 11.113 24.436 11.064C23.278 11.011 22.931 11 20 11C17.069 11 16.722 11.011 15.564 11.064C14.494 11.113 13.912 11.292 13.525 11.442C13.013 11.641 12.647 11.879 12.263 12.263C11.879 12.647 11.641 13.013 11.442 13.525C11.292 13.912 11.113 14.494 11.064 15.564C11.011 16.722 11 17.069 11 20C11 22.931 11.011 23.278 11.064 24.436C11.113 25.506 11.292 26.088 11.442 26.475C11.641 26.987 11.879 27.353 12.263 27.737C12.647 28.121 13.013 28.359 13.525 28.558C13.912 28.708 14.494 28.887 15.564 28.936C16.721 28.989 17.069 29 20 29C22.931 29 23.279 28.989 24.436 28.936C25.506 28.887 26.088 28.708 26.475 28.558C26.987 28.359 27.353 28.121 27.737 27.737C28.121 27.353 28.359 26.987 28.558 26.475C28.708 26.088 28.887 25.506 28.936 24.436C28.989 23.278 29 22.931 29 20C29 17.069 28.989 16.722 28.936 15.564C28.887 14.494 28.708 13.912 28.558 13.525C28.359 13.013 28.121 12.647 27.737 12.263Z" fill="white"/>
</svg>
