<svg width="50" height="20" viewBox="0 0 50 20" fill="none" xmlns="http://www.w3.org/2000/svg">
<g opacity="0.56">
<path fill-rule="evenodd" clip-rule="evenodd" d="M23.6412 9.78293V15.6375H21.7944V1.17597H26.6897C27.8706 1.15068 29.0118 1.60169 29.8598 2.42782C30.7182 3.20548 31.2019 4.31823 31.183 5.47945C31.2082 6.6491 30.7245 7.77028 29.8598 8.55005C29.0034 9.37197 27.946 9.78293 26.6897 9.78082L23.6412 9.78293ZM23.6412 2.9568V8.00632H26.7358C27.4226 8.0274 28.0842 7.75553 28.5616 7.25817C29.531 6.3098 29.5541 4.74816 28.6098 3.77239C28.6041 3.76669 28.5987 3.761 28.5933 3.75538L28.5933 3.75537L28.5933 3.75536L28.5933 3.75534L28.5933 3.75533C28.5828 3.74435 28.5727 3.73367 28.5616 3.72392C28.0905 3.21602 27.4247 2.93783 26.7358 2.9568H23.6412ZM38.6684 6.52055C37.879 5.78714 36.8028 5.42044 35.4376 5.42044C33.6851 5.42044 32.3619 6.06533 31.4699 7.35722L33.0947 8.38778C33.6956 7.51317 34.5122 7.07481 35.5423 7.07481C36.1998 7.06638 36.8363 7.30875 37.3242 7.75132C37.8099 8.15595 38.0905 8.75869 38.0863 9.39515V9.82086C37.3786 9.41833 36.4741 9.21602 35.379 9.21602C34.0934 9.21602 33.0675 9.51949 32.299 10.1243C31.5306 10.7292 31.1454 11.5427 31.1454 12.5669C31.1286 13.5005 31.5306 14.3899 32.2383 14.9905C32.967 15.6375 33.8736 15.96 34.9561 15.96C36.2249 15.96 37.2425 15.3952 38.0067 14.2634H38.0863V15.6375H39.8514V9.53846C39.8514 8.26133 39.4578 7.25395 38.6684 6.52055ZM33.0486 12.6091C33.0465 13.0896 33.2748 13.5406 33.66 13.8209C34.0683 14.1433 34.575 14.3161 35.0943 14.3056C35.8732 14.3035 36.6206 13.9916 37.1713 13.4373C37.7827 12.8577 38.0884 12.1791 38.0884 11.3973C37.5126 10.9357 36.7107 10.7039 35.6805 10.7039C34.9309 10.7039 34.3049 10.8851 33.8045 11.2497C33.2999 11.6207 33.0486 12.0695 33.0486 12.6091ZM43.8233 20L49.9854 5.74289H47.9753L45.1257 12.8514H45.0859L42.1567 5.74289H40.1508L44.2044 15.0116L41.918 20H43.8233Z" fill="white"/>
<path fill-rule="evenodd" clip-rule="evenodd" d="M16.1808 8.51844C16.1808 7.95153 16.1347 7.38672 16.0384 6.82824H8.25366V10.0274H12.7114C12.5271 11.0601 11.9325 11.9726 11.0635 12.5522V14.6301H13.7248C15.2826 13.1865 16.1808 11.0474 16.1808 8.51844Z" fill="white"/>
<path fill-rule="evenodd" clip-rule="evenodd" d="M8.25377 16.6386C10.4816 16.6386 12.3576 15.9031 13.7249 14.6322L11.0636 12.5543C10.3224 13.0601 9.36976 13.3488 8.25377 13.3488C6.10134 13.3488 4.27345 11.8883 3.62018 9.91991H0.879395V12.0611C2.28015 14.8683 5.134 16.6386 8.25377 16.6386Z" fill="white"/>
<path fill-rule="evenodd" clip-rule="evenodd" d="M3.62018 9.91992C3.27471 8.88936 3.27471 7.77029 3.62018 6.73973V4.59853H0.879397C-0.293132 6.94626 -0.293132 9.71338 0.879397 12.0611L3.62018 9.91992Z" fill="white"/>
<path fill-rule="evenodd" clip-rule="evenodd" d="M8.25377 3.31085C9.43048 3.29189 10.5674 3.73867 11.4196 4.55637L13.7772 2.18546C12.2822 0.773445 10.3036 -0.00210832 8.25377 0.021074C5.134 0.021074 2.28015 1.79347 0.879395 4.59852L3.62018 6.73973C4.27345 4.77134 6.10134 3.31085 8.25377 3.31085Z" fill="white"/>
</g>
</svg>
