<svg id="Слой_1" data-name="Слой 1" xmlns="http://www.w3.org/2000/svg" viewBox="0 0 60 60"><defs><style>.cls-1{fill:#cc5643}.cls-2{fill:#fff}</style></defs><title>G+</title><circle class="cls-1" cx="30" cy="30" r="30"/><path class="cls-2" d="M9.86 29.25a13.06 13.06 0 0 1 13.07-12.43A13.29 13.29 0 0 1 31.68 20a46.64 46.64 0 0 1-3.32 3.44c-3-2.06-7.21-2.64-10.19-.27-4.26 2.95-4.46 9.9-.36 13.07 4 3.6 11.51 1.82 12.62-3.72-2.5 0-5 0-7.5-.08V28h12.53c.25 3.5-.21 7.23-2.36 10.13-3.27 4.59-9.8 5.93-14.92 4a13.12 13.12 0 0 1-8.32-12.88zm33.73-4.96h3.72v3.74h3.74v3.72h-3.74v3.74h-3.73v-3.74l-3.76-.06V28h3.74q.01-1.86.03-3.71z"/></svg>