<svg width="40" height="40" viewBox="0 0 40 40" fill="none" xmlns="http://www.w3.org/2000/svg">
<rect width="40" height="40" rx="20" fill="url(#paint0_linear)"/>
<path fill-rule="evenodd" clip-rule="evenodd" d="M19.9932 30.811H19.9887C18.1641 30.8103 16.3714 30.3525 14.7791 29.484L9 31L10.5466 25.3509C9.59257 23.6976 9.09058 21.8222 9.0914 19.9009C9.09379 13.8902 13.9842 9 19.9931 9C22.9094 9.00126 25.6465 10.1366 27.7047 12.1972C29.7629 14.2577 30.8958 16.9966 30.8947 19.9095C30.8923 25.9188 26.0038 30.8085 19.9932 30.811ZM15.0484 27.5108L15.3793 27.7071C16.7705 28.5327 18.3652 28.9695 19.9911 28.9701H19.9948C24.9889 28.9701 29.0536 24.9053 29.0556 19.9092C29.0565 17.488 28.115 15.2116 26.4042 13.4988C24.6935 11.7861 22.4185 10.8425 19.9983 10.8416C15.0003 10.8416 10.9356 14.906 10.9336 19.9018C10.9329 21.6139 11.4119 23.2813 12.319 24.7239L12.5344 25.0667L11.619 28.4104L15.0484 27.5108ZM25.4865 22.502C25.4184 22.3884 25.2369 22.3202 24.9645 22.1838C24.6921 22.0475 23.3529 21.3886 23.1031 21.2976C22.8535 21.2068 22.6718 21.1614 22.4903 21.434C22.3087 21.7066 21.7867 22.3202 21.6278 22.502C21.4689 22.6838 21.31 22.7066 21.0377 22.5702C20.7653 22.4339 19.8876 22.1463 18.8471 21.2182C18.0374 20.4959 17.4907 19.6039 17.3318 19.3312C17.1729 19.0585 17.3149 18.9111 17.4512 18.7753C17.5738 18.6532 17.7236 18.4571 17.8598 18.2981C17.996 18.1391 18.0414 18.0254 18.1322 17.8437C18.223 17.6618 18.1776 17.5028 18.1095 17.3665C18.0414 17.2301 17.4966 15.8893 17.2697 15.3439C17.0485 14.8128 16.824 14.8847 16.6568 14.8763C16.4981 14.8684 16.3163 14.8667 16.1347 14.8667C15.9531 14.8667 15.658 14.9349 15.4083 15.2076C15.1587 15.4803 14.455 16.1393 14.455 17.48C14.455 18.8207 15.431 20.116 15.5672 20.2978C15.7034 20.4796 17.488 23.2309 20.2205 24.4108C20.8704 24.6915 21.3777 24.8591 21.7734 24.9846C22.4259 25.192 23.0198 25.1627 23.489 25.0925C24.0124 25.0144 25.1006 24.4336 25.3277 23.7974C25.5546 23.161 25.5546 22.6156 25.4865 22.502Z" fill="#FDFDFD"/>
<defs>
<linearGradient id="paint0_linear" x1="20" y1="0" x2="20" y2="40" gradientUnits="userSpaceOnUse">
<stop stop-color="#7DCC75"/>
<stop offset="1" stop-color="#58B04E"/>
</linearGradient>
</defs>
</svg>
