<svg width="40" height="40" viewBox="0 0 40 40" fill="none" xmlns="http://www.w3.org/2000/svg">
<rect width="40" height="40" rx="20" fill="#773CBE"/>
<path fill-rule="evenodd" clip-rule="evenodd" d="M24.4567 21.8268C23.411 22.8606 21.9959 23.427 20.5308 23.3979C20.127 23.3979 19.7212 23.3979 19.3175 23.3979C19.182 23.3891 19.05 23.4438 18.96 23.5461C18.0495 24.5117 17.1306 25.4709 16.2264 26.4322C16.0554 26.6353 15.8052 26.7536 15.5408 26.7562C15.32 26.7557 15.1087 26.6656 14.9548 26.5061C14.8008 26.3467 14.7172 26.1315 14.7229 25.9092C14.7229 25.1088 14.7229 24.3091 14.7229 23.5101C14.7229 23.3577 14.6808 23.2984 14.5273 23.2688C12.2857 22.6886 10.9189 21.2169 10.2544 19.0338C10.1481 18.6214 10.0632 18.2037 10 17.7824V16.622C10.0405 16.2527 10.1109 15.8873 10.2103 15.5294C10.7591 13.5221 11.9409 12.0674 13.9091 11.3115C14.4749 11.1003 15.0742 10.9948 15.6775 11.0002C17.2609 11.0002 18.8464 11.0002 20.4319 11.0002C22.6441 10.9896 24.299 11.9806 25.4345 13.8376C26.971 16.4104 26.5676 19.7067 24.4567 21.8268Z" fill="white"/>
<path fill-rule="evenodd" clip-rule="evenodd" d="M29.0526 18.6599C28.4751 18.1413 27.7622 17.7967 26.9965 17.6659C26.9965 17.7219 26.982 17.7551 26.9778 17.7862C26.9085 18.7878 26.625 19.7628 26.1462 20.6458C24.8614 22.9699 22.9134 24.2399 20.2128 24.2731C19.928 24.2731 19.6432 24.2731 19.3584 24.2731C19.1255 24.2731 19.0216 24.4516 19.1401 24.6445C19.7971 25.7153 20.716 26.4478 21.9737 26.6657C22.5178 26.7323 23.066 26.7594 23.614 26.7467C23.7418 26.7388 23.866 26.7901 23.9508 26.8857C24.3167 27.2758 24.6909 27.6576 25.061 28.0436C25.3458 28.3404 25.6286 28.6433 25.9217 28.9359C26.1798 29.2315 26.6288 29.263 26.9258 29.0065C27.1002 28.8482 27.1915 28.6184 27.1732 28.3839C27.1732 27.8921 27.1732 27.3982 27.1732 26.9064C27.1732 26.7301 27.2211 26.6678 27.3957 26.6014C27.8268 26.4641 28.24 26.276 28.6264 26.0411C31.0755 24.3602 31.2896 20.6437 29.0526 18.6599Z" fill="white"/>
</svg>
