<svg width="40" height="40" viewBox="0 0 40 40" fill="none" xmlns="http://www.w3.org/2000/svg">
<rect width="40" height="40" rx="20" fill="url(#paint0_linear)"/>
<path fill-rule="evenodd" clip-rule="evenodd" d="M10.4436 18.7489C16.0808 16.2087 19.8397 14.534 21.7206 13.7249C27.0907 11.4147 28.2065 11.0134 28.9338 11.0001C29.0938 10.9972 29.4514 11.0382 29.6831 11.2327C29.8788 11.3968 29.9326 11.6186 29.9583 11.7743C29.9841 11.93 30.0162 12.2846 29.9907 12.5616C29.6997 15.7241 28.4405 23.3986 27.7999 26.9406C27.5288 28.4394 26.9951 28.9419 26.4784 28.9911C25.3554 29.098 24.5027 28.2235 23.4151 27.4861C21.7132 26.3323 20.7517 25.614 19.0997 24.488C17.1906 23.1868 18.4282 22.4716 19.5162 21.3027C19.801 20.9969 24.7487 16.3423 24.8444 15.92C24.8564 15.8672 24.8675 15.6704 24.7544 15.5664C24.6414 15.4625 24.4745 15.498 24.3541 15.5263C24.1834 15.5664 21.4646 17.425 16.1976 21.1022C15.4259 21.6503 14.7269 21.9174 14.1006 21.9034C13.4102 21.888 12.082 21.4996 11.0947 21.1677C9.88374 20.7606 8.92128 20.5453 9.00509 19.8539C9.04874 19.4937 9.52826 19.1254 10.4436 18.7489Z" fill="white"/>
<defs>
<linearGradient id="paint0_linear" x1="20" y1="0" x2="20" y2="40" gradientUnits="userSpaceOnUse">
<stop stop-color="#65C7FF"/>
<stop offset="1" stop-color="#337CB4"/>
</linearGradient>
</defs>
</svg>
