<?xml version="1.0" encoding="UTF-8"?>
<svg xmlns:xlink="http://www.w3.org/1999/xlink" width="60px" height="60px" viewBox="0 0 60 60" version="1.1" xmlns="http://www.w3.org/2000/svg">
    <!-- Generator: Sketch 41.2 (35397) - http://www.bohemiancoding.com/sketch -->
    <title>BTN/social/tw</title>
    <desc>Created with Sketch.</desc>
    <defs></defs>
    <g id="Symbols" stroke="none" stroke-width="1" fill="none" fill-rule="evenodd">
        <g id="BTN/social/tw">
            <g>
                <rect id="Rectangle-Copy-5" fill="#41ABE1" x="0" y="0" width="60" height="60" rx="30"></rect>
                <path d="M44,22.5012636 C43.0434297,22.9255124 42.0153667,23.2122677 40.9363076,23.3411311 C42.0375305,22.6810251 42.8834783,21.6357018 43.2817387,20.3900226 C42.2509298,21.0013881 41.1094003,21.4452508 39.8943188,21.6844424 C38.9213709,20.6477493 37.5349618,20 36.0007619,20 C33.0549491,20 30.6665636,22.3882875 30.6665636,25.3341003 C30.6665636,25.7520727 30.713735,26.1592574 30.8046455,26.5497703 C26.37151,26.3272505 22.440981,24.2035546 19.8100695,20.9762823 C19.3508098,21.7641729 19.0877873,22.6804366 19.0877873,23.6579938 C19.0877873,25.5087621 20.0295491,27.1413257 21.460874,28.0979941 C20.5863879,28.0702404 19.7639768,27.8302643 19.0447348,27.430827 C19.0442444,27.4530888 19.0442444,27.4753506 19.0442444,27.4979066 C19.0442444,30.0823331 20.8830483,32.2380978 23.3232146,32.7284454 C22.8756252,32.8502478 22.4044011,32.9154641 21.9178781,32.9154641 C21.5741443,32.9154641 21.2400214,32.8820223 20.9142344,32.8198463 C21.5930718,34.9389329 23.5629946,36.4811744 25.8972458,36.5240308 C24.0715832,37.9547673 21.7716564,38.8076781 19.2723542,38.8076781 C18.8418289,38.8076781 18.4172859,38.7822781 18,38.7330472 C20.3606319,40.2465544 23.16444,41.1296706 26.176842,41.1296706 C35.9884052,41.1296706 41.3537896,33.0015691 41.3537896,25.9526249 C41.3537896,25.7213769 41.3485919,25.4913058 41.3382946,25.2625095 C42.3805777,24.5104142 43.2848769,23.570908 44,22.5012636" id="Fill-17" fill="#FFFFFF"></path>
            </g>
        </g>
    </g>
</svg>