<svg width="18" height="20" viewBox="0 0 18 20" fill="none" xmlns="http://www.w3.org/2000/svg">
<path d="M0.35141 0.589216C0.102802 0.890498 -0.0218654 1.27678 0.00315088 1.6683V18.5892C-0.0218654 18.9807 0.102802 19.367 0.35141 19.6683L0.411977 19.7219L9.79226 10.2397V10.0178L0.411977 0.535645L0.35141 0.589216Z" fill="url(#paint0_linear)"/>
<path d="M12.919 13.4005L9.79227 10.2397V10.0178L12.919 6.8877H12.9872L16.659 9.0229C17.7189 9.63514 17.7189 10.63 16.659 11.2346L12.9569 13.3622L12.919 13.4005Z" fill="url(#paint1_linear)"/>
<path d="M12.9872 13.3622L9.79226 10.1326L0.35141 19.6683C0.795929 20.0674 1.45961 20.0867 1.92615 19.7142L12.9872 13.3622Z" fill="url(#paint2_linear)"/>
<path d="M12.9872 6.88768L1.92615 0.543295C1.45961 0.170752 0.795929 0.190104 0.35141 0.589214L9.79226 10.1326L12.9872 6.88768Z" fill="url(#paint3_linear)"/>
<path opacity="0.2" d="M12.919 13.2932L1.92615 19.5993C1.47807 19.9412 0.860054 19.9412 0.411977 19.5993L0.35141 19.6606L0.411977 19.7141C0.860054 20.056 1.47807 20.056 1.92615 19.7141L12.9872 13.3621L12.919 13.2932Z" fill="black"/>
<path opacity="0.12" d="M0.353269 19.5536C0.105203 19.2543 -0.0200049 18.8711 0.00316755 18.4822V18.5893C-0.0219811 18.9808 0.103345 19.3671 0.353269 19.6684L0.414157 19.6072L0.353269 19.5536Z" fill="black"/>
<path opacity="0.12" d="M16.659 11.1198L12.8736 13.2933L12.9417 13.3622L16.659 11.2346C17.102 11.04 17.4062 10.6184 17.454 10.1326C17.3585 10.5703 17.0637 10.9365 16.659 11.1198Z" fill="black"/>
<path opacity="0.25" d="M1.92614 0.658205L16.659 9.1378C17.0663 9.32166 17.3618 9.69154 17.454 10.1327C17.4088 9.64402 17.1042 9.21887 16.659 9.023L1.92614 0.543409C0.86622 -0.0611828 0.00314331 0.443919 0.00314331 1.66841V1.77555C0.00314331 0.551062 0.86622 0.0459601 1.92614 0.658205Z" fill="white"/>
<defs>
<linearGradient id="paint0_linear" x1="8.09676" y1="-4.59775" x2="-4.78706" y2="-3.7052" gradientUnits="userSpaceOnUse">
<stop stop-color="#00A0FF"/>
<stop offset="0.01" stop-color="#00A1FF"/>
<stop offset="0.26" stop-color="#00BEFF"/>
<stop offset="0.51" stop-color="#00D2FF"/>
<stop offset="0.76" stop-color="#00DFFF"/>
<stop offset="1" stop-color="#00E3FF"/>
</linearGradient>
<linearGradient id="paint1_linear" x1="18.0672" y1="2.3456" x2="-0.254252" y2="2.3456" gradientUnits="userSpaceOnUse">
<stop stop-color="#FFE000"/>
<stop offset="0.41" stop-color="#FFBD00"/>
<stop offset="0.78" stop-color="#FFA500"/>
<stop offset="1" stop-color="#FF9C00"/>
</linearGradient>
<linearGradient id="paint2_linear" x1="-1.75357" y1="7.85027" x2="-8.51202" y2="26.5668" gradientUnits="userSpaceOnUse">
<stop stop-color="#FF3A44"/>
<stop offset="1" stop-color="#C31162"/>
</linearGradient>
<linearGradient id="paint3_linear" x1="-3.54977" y1="-3.23552" x2="-0.518269" y2="5.12183" gradientUnits="userSpaceOnUse">
<stop stop-color="#32A071"/>
<stop offset="0.07" stop-color="#2DA771"/>
<stop offset="0.48" stop-color="#15CF74"/>
<stop offset="0.8" stop-color="#06E775"/>
<stop offset="1" stop-color="#00F076"/>
</linearGradient>
</defs>
</svg>
