<svg width="20" height="20" viewBox="0 0 20 20" fill="none" xmlns="http://www.w3.org/2000/svg">
<path d="M15.6702 0.103027H4.39932C2.04407 0.103027 0.134766 2.01233 0.134766 4.36758V15.6385C0.134766 17.9937 2.04407 19.903 4.39932 19.903H15.6702C18.0255 19.903 19.9348 17.9937 19.9348 15.6385V4.36758C19.9348 2.01233 18.0255 0.103027 15.6702 0.103027Z" fill="#E14459"/>
<path d="M4.96147 1.39726C4.81211 1.39746 4.66895 1.45676 4.56345 1.56211C4.45796 1.66747 4.39878 1.81026 4.39893 1.95908C4.39907 2.10789 4.45851 2.25056 4.56419 2.35571C4.66987 2.46086 4.81313 2.51989 4.96248 2.51982C5.11183 2.51976 5.25504 2.4606 5.36062 2.35535C5.46621 2.25011 5.52552 2.10739 5.52553 1.95858V1.95745C5.52526 1.80864 5.46568 1.66603 5.35991 1.56097C5.25413 1.45592 5.11082 1.39702 4.96147 1.39722V1.39726ZM15.0371 1.39726C14.8877 1.39746 14.7445 1.45676 14.639 1.56211C14.5335 1.66747 14.4744 1.81026 14.4745 1.95908C14.4747 2.10791 14.5341 2.25058 14.6398 2.35574C14.7455 2.46089 14.8888 2.51991 15.0381 2.51982C15.1875 2.51974 15.3307 2.46057 15.4362 2.35533C15.5418 2.25008 15.6011 2.10738 15.6011 1.95858V1.95745C15.6008 1.80864 15.5413 1.66603 15.4355 1.56097C15.3297 1.45592 15.1864 1.39701 15.0371 1.39722V1.39726Z" fill="#C73148"/>
<path d="M4.93938 1.88116C4.74362 1.89166 4.75353 2.17638 4.75353 2.17638C5.80558 4.22511 7.74273 5.23001 9.97662 5.23012C12.2076 5.22686 14.1639 4.21088 15.2146 2.16485C15.2146 2.16485 15.2562 1.77957 14.8462 1.91312C13.7687 3.69907 11.9585 4.75561 9.97794 4.75894C7.9936 4.75944 6.18987 3.71399 5.11034 1.92465C5.04061 1.891 4.98455 1.87873 4.93938 1.88116ZM12.0596 9.84466L11.461 11.6272L10.8784 9.84598H10.3096L11.2279 12.4371H11.6707L12.2705 10.735L12.8697 12.4371H13.3161L14.2325 9.84598H13.6779L13.0943 11.6272L12.4957 9.84466H12.0596ZM8.88041 9.84531L7.71907 12.4358H8.26502L8.48922 11.9343L8.50509 11.8964H9.71174L9.94818 12.4358H10.509L9.35825 9.86047L9.34799 9.84531L8.88041 9.84531ZM17.2909 9.84564V12.4341H17.8187V9.84565L17.2909 9.84564ZM2.15869 9.84596V12.4381H2.69373V11.3854H3.90137V12.4381H4.43641V9.84598H3.90137V10.8918H2.69373V9.84598L2.15869 9.84596ZM6.91221 9.84661V11.3303C6.91221 11.7518 6.6995 11.9768 6.31302 11.9768C5.92437 11.9768 5.71019 11.7455 5.71019 11.3125V9.84829H5.17548V11.3303C5.17548 12.0596 5.58778 12.4776 6.30607 12.4776C7.03119 12.4776 7.44692 12.0516 7.44692 11.3089V9.84665L6.91221 9.84661ZM14.6637 9.84759V12.4361H16.6544V11.9643H15.1911V11.3224H16.164V10.8503H15.1911V10.3198H16.6034V9.84764L14.6637 9.84759ZM9.10693 10.5013L9.48853 11.3692L9.51433 11.4288H8.70548L8.73095 11.3692L9.10693 10.5013Z" fill="white"/>
</svg>
