<?xml version="1.0" encoding="UTF-8"?>
<svg xmlns:xlink="http://www.w3.org/1999/xlink" width="60px" height="60px" viewBox="0 0 60 60" version="1.1" xmlns="http://www.w3.org/2000/svg">
    <!-- Generator: Sketch 41.2 (35397) - http://www.bohemiancoding.com/sketch -->
    <title>BTN/social/vk</title>
    <desc>Created with Sketch.</desc>
    <defs></defs>
    <g id="Symbols" stroke="none" stroke-width="1" fill="none" fill-rule="evenodd">
        <g id="BTN/social/vk">
            <g>
                <rect id="Rectangle-Copy" fill="#5481AB" x="0" y="0" width="60" height="60" rx="30"></rect>
                <path d="M28.4121195,38.8954259 L30.2948169,38.8954259 C30.2948169,38.8954259 30.8633764,38.8326628 31.1539713,38.5198191 C31.4215401,38.2324304 31.4129904,37.6928235 31.4129904,37.6928235 C31.4129904,37.6928235 31.3757794,35.1665619 32.5485548,34.794647 C33.7046192,34.4280758 35.1887809,37.2360911 36.761938,38.3157906 C37.9516185,39.1328762 38.8557563,38.9540112 38.8557563,38.9540112 L43.0624357,38.8954259 C43.0624357,38.8954259 45.2624461,38.7596012 44.2192774,37.0292451 C44.1338769,36.8879796 43.6112724,35.7495976 41.0916174,33.4107508 C38.4532372,30.9621171 38.8068866,31.3584182 41.9843879,27.1235634 C43.9192583,24.5444487 44.6932065,22.9703201 44.4511898,22.295763 C44.2207347,21.6533646 42.7975873,21.8228054 42.7975873,21.8228054 L38.0609195,21.8524381 C38.0609195,21.8524381 37.7099905,21.8044429 37.4495141,21.9601846 C37.1951585,22.1127202 37.0317414,22.46841 37.0317414,22.46841 C37.0317414,22.46841 36.2814022,24.4641003 35.281954,26.1614233 C33.1731735,29.7425123 32.3297585,29.9320646 31.9850475,29.7091877 C31.1830211,29.1909553 31.383552,27.6275139 31.383552,26.5163357 C31.383552,23.0457135 31.9099455,21.5984712 30.3581629,21.2240303 C29.8432338,21.0996701 29.4641294,21.0171843 28.1473682,21.003971 C26.4575263,20.9867743 25.026995,21.0093146 24.2172932,21.40581 C23.6784636,21.670367 23.2625369,22.2577748 23.5162124,22.2917796 C23.8292504,22.3335568 24.5380066,22.4827891 24.9138077,22.9944149 C25.3992013,23.6548844 25.3821017,25.1376859 25.3821017,25.1376859 C25.3821017,25.1376859 25.6612322,29.2232112 24.7308621,29.7304649 C24.09235,30.0786736 23.2165819,29.3680714 21.3360219,26.1189659 C20.3729102,24.4548705 19.6454999,22.6147275 19.6454999,22.6147275 C19.6454999,22.6147275 19.5055947,22.2713767 19.2551254,22.0871681 C18.9516087,21.8639998 18.5273265,21.7934642 18.5273265,21.7934642 L14.0264574,21.8226111 C14.0264574,21.8226111 13.3507344,21.8418481 13.1030827,22.1356492 C12.8819546,22.3970971 13.0854002,22.9374812 13.0854002,22.9374812 C13.0854002,22.9374812 16.6088755,31.1814963 20.5987017,35.3358084 C24.2580018,39.1457009 28.4121195,38.8954259 28.4121195,38.8954259 L28.4121195,38.8954259 Z" id="Fill-153" fill="#FFFFFF"></path>
            </g>
        </g>
    </g>
</svg>