<?xml version="1.0" encoding="UTF-8"?>
<svg xmlns:xlink="http://www.w3.org/1999/xlink" width="60px" height="60px" viewBox="0 0 60 60" version="1.1" xmlns="http://www.w3.org/2000/svg">
    <!-- Generator: Sketch 41.2 (35397) - http://www.bohemiancoding.com/sketch -->
    <title>BTN/social/fb</title>
    <desc>Created with Sketch.</desc>
    <defs></defs>
    <g id="Symbols" stroke="none" stroke-width="1" fill="none" fill-rule="evenodd">
        <g id="BTN/social/fb">
            <g>
                <rect id="Rectangle-Copy-3" fill="#275FBA" x="0" y="0" width="60" height="60" rx="30"></rect>
                <path d="M23.4375,25.2388249 L26.3459038,25.2388249 L26.3459038,23.9193538 L26.3459038,22.6268288 L26.3459038,22.4112595 C26.3459038,21.1671709 26.3781947,19.2444175 27.2830067,18.0541098 C28.2363663,16.7937644 29.5450367,15.9375 31.7963773,15.9375 C35.4640616,15.9375 37.0100141,16.4598324 37.0100141,16.4598324 L36.2828018,20.7686572 C36.2828018,20.7686572 35.0711153,20.4184684 33.9399333,20.4184684 C32.808974,20.4184684 31.7963773,20.8223268 31.7963773,21.9535088 L31.7963773,22.4112595 L31.7963773,23.9193538 L31.7963773,25.2388249 L36.4335667,25.2388249 L36.1103241,29.4452097 L31.7963773,29.4452097 L31.7963773,44.0625 L26.3459038,44.0625 L26.3459038,29.4452097 L23.4375,29.4452097 L23.4375,25.2388249 L23.4375,25.2388249 Z" id="Fill-2" fill="#FFFFFF"></path>
            </g>
        </g>
    </g>
</svg>