<svg width="17" height="21" viewBox="0 0 17 21" fill="none" xmlns="http://www.w3.org/2000/svg">
<path fill-rule="evenodd" clip-rule="evenodd" d="M8.55385 5.34323C8.90538 5.34323 9.47954 5.20652 10.2763 4.93311C11.0731 4.6597 11.7645 4.523 12.3504 4.523C13.3112 4.523 14.1666 4.78078 14.9165 5.29636C15.3383 5.59321 15.7563 5.99551 16.1703 6.50327C15.5454 7.03447 15.0884 7.50708 14.7993 7.9211C14.2759 8.67103 14.0143 9.49907 14.0143 10.4052C14.0143 11.3973 14.2916 12.2918 14.8462 13.0886C15.4008 13.8854 16.0336 14.3892 16.7445 14.6001C16.4476 15.561 15.9555 16.5648 15.268 17.6116C14.2291 19.1817 13.1979 19.9668 12.1746 19.9668C11.7684 19.9668 11.2079 19.8379 10.4931 19.5801C9.77834 19.3223 9.17489 19.1934 8.68275 19.1934C8.1906 19.1934 7.6184 19.3282 6.96612 19.5977C6.31383 19.8672 5.78459 20.002 5.37838 20.002C4.15193 20.002 2.94894 18.963 1.76936 16.8851C0.58978 14.8306 0 12.8152 0 10.8388C0 9.00302 0.451123 7.50709 1.35338 6.35094C2.25564 5.1948 3.39419 4.61674 4.76907 4.61674C5.35495 4.61674 6.06386 4.73782 6.89581 4.97998C7.72777 5.22215 8.28044 5.34323 8.55385 5.34323ZM12.2215 0.503857C12.2215 1.00381 12.1043 1.55063 11.8699 2.14432C11.6356 2.73802 11.2645 3.28874 10.7568 3.7965C10.3193 4.22615 9.88576 4.51518 9.45611 4.66361C9.1827 4.74954 8.76868 4.81594 8.21404 4.86281C8.22966 3.67542 8.54018 2.64818 9.14559 1.78108C9.751 0.913969 10.7528 0.320283 12.1512 0C12.1824 0.101553 12.2019 0.191387 12.2097 0.269505C12.2176 0.347623 12.2215 0.425739 12.2215 0.503857Z" fill="black"/>
</svg>
