<svg width="35" height="21" viewBox="0 0 35 21" fill="none" xmlns="http://www.w3.org/2000/svg">
<path opacity="0.4" d="M34.3027 10.3297C34.3027 16.0346 29.6097 20.6592 23.8202 20.6592C21.3747 20.6592 19.1245 19.8337 17.3408 18.4506C19.7797 16.5593 21.3453 13.6244 21.3453 10.3297C21.3453 7.0349 19.7797 4.10003 17.3408 2.20868C19.1245 0.825628 21.3747 0.000133514 23.8202 0.000133514C29.6097 0.000133514 34.3027 4.62474 34.3027 10.3297Z" fill="white"/>
<path opacity="0.8" fill-rule="evenodd" clip-rule="evenodd" d="M10.9283 0.000133514C16.6941 0.000133514 21.3683 4.62482 21.3683 10.3297C21.3683 16.0345 16.6941 20.6592 10.9283 20.6592C5.16243 20.6592 0.488281 16.0345 0.488281 10.3297C0.488281 4.62482 5.16243 0.000133514 10.9283 0.000133514Z" fill="white"/>
</svg>
