<svg width="51" height="17" viewBox="0 0 51 17" fill="none" xmlns="http://www.w3.org/2000/svg">
<path opacity="0.8" d="M22.0491 15.8715H17.9463L20.5125 0.634766H24.6151L22.0491 15.8715Z" fill="white"/>
<path opacity="0.8" d="M36.9216 1.00709C36.1124 0.698792 34.8288 0.358398 33.2417 0.358398C29.19 0.358398 26.3369 2.43308 26.3194 5.39924C26.2857 7.58767 28.3622 8.80317 29.9152 9.53287C31.5025 10.2785 32.0421 10.7652 32.0421 11.4298C32.0259 12.4506 30.7594 12.9211 29.5782 12.9211C27.9401 12.9211 27.0624 12.6785 25.7286 12.1106L25.1884 11.8671L24.6143 15.2875C25.5765 15.7084 27.3494 16.082 29.19 16.0984C33.495 16.0984 36.2977 14.0558 36.3309 10.8949C36.3473 9.16037 35.2508 7.83133 32.887 6.7453C31.452 6.04814 30.5732 5.57805 30.5732 4.86473C30.59 4.21626 31.3165 3.55207 32.9364 3.55207C34.2702 3.51953 35.2502 3.8274 35.9926 4.13547L36.3636 4.29727L36.9216 1.00709Z" fill="white"/>
<path opacity="0.8" fill-rule="evenodd" clip-rule="evenodd" d="M44.266 0.634766H47.4395L50.7495 15.8713H46.9506C46.9506 15.8713 46.5789 14.1206 46.4611 13.5857H41.1934C41.0411 13.9907 40.3323 15.8713 40.3323 15.8713H36.0273L42.1216 1.89896C42.5438 0.910097 43.2873 0.634766 44.266 0.634766ZM44.0131 6.21054C44.0131 6.21054 42.713 9.59832 42.3751 10.4736H45.7853C45.6166 9.71185 44.8397 6.06469 44.8397 6.06469L44.5529 4.7518C44.4322 5.08988 44.2576 5.55468 44.1398 5.86818C44.06 6.08069 44.0062 6.22368 44.0131 6.21054Z" fill="white"/>
<path opacity="0.8" d="M14.5192 0.634766L10.5011 11.0247L10.0621 8.91753C9.31923 6.48609 6.9895 3.84437 4.38965 2.53084L8.07001 15.8553H12.4086L18.8576 0.634766H14.5192V0.634766Z" fill="white"/>
<path opacity="0.4" d="M6.77014 0.634766H0.169094L0.101562 0.942628C5.25079 2.20704 8.66103 5.25485 10.0621 8.91818L8.62715 1.91555C8.3909 0.942412 7.66488 0.666866 6.77014 0.634766Z" fill="white"/>
</svg>
