<svg width="55" height="16" viewBox="0 0 55 16" fill="none" xmlns="http://www.w3.org/2000/svg">
<path opacity="0.8" fill-rule="evenodd" clip-rule="evenodd" d="M30.7014 1.74843L27.2018 9.0278H26.8465V0.164062H21.875V15.1641H26.0942C27.2024 15.1641 28.2093 14.5455 28.6736 13.5797L32.1732 6.30053H32.5285V15.1641H37.5V0.164062H33.2808C32.1728 0.164062 31.1657 0.782598 30.7014 1.74843Z" fill="white"/>
<path opacity="0.8" fill-rule="evenodd" clip-rule="evenodd" d="M12.2614 2.13537L10.1785 9.0276H9.82146L7.73857 2.13537C7.38591 0.967918 6.26636 0.164062 4.99336 0.164062H0V15.1641H4.99989V6.30033H5.3572L8.21434 15.1641H11.7857L14.6428 6.30033H15.0001V15.1641H20V0.164062H15.0066C13.7336 0.164062 12.6141 0.967918 12.2614 2.13537Z" fill="white"/>
<path opacity="0.8" fill-rule="evenodd" clip-rule="evenodd" d="M39.375 6.76416V15.1642H44.2347V10.2641H49.4613C51.7317 10.2641 53.6581 8.80188 54.375 6.76416H39.375Z" fill="white"/>
<path opacity="0.4" fill-rule="evenodd" clip-rule="evenodd" d="M38.75 0.164062C39.4147 3.57703 42.58 6.16406 46.3892 6.16406H54.8935C54.9631 5.841 55 5.50673 55 5.16419C55 2.40265 52.6274 0.164062 49.7011 0.164062H38.75Z" fill="white"/>
</svg>
