<svg width="16" height="16" viewBox="0 0 16 16" fill="none" xmlns="http://www.w3.org/2000/svg">
<path fill-rule="evenodd" clip-rule="evenodd" d="M9.4531 7.99964L15.699 1.75422C16.1003 1.35282 16.1003 0.702454 15.699 0.301052C15.2976 -0.100351 14.6472 -0.100351 14.2459 0.301052L8 6.54647L1.75414 0.301052C1.35276 -0.100351 0.702423 -0.100351 0.301038 0.301052C-0.100346 0.702454 -0.100346 1.35282 0.301038 1.75422L6.5469 7.99964L0.301038 14.2458C-0.100346 14.6472 -0.100346 15.2975 0.301038 15.6989C0.702423 16.1004 1.35276 16.1004 1.75414 15.6989L8 9.45281L14.2459 15.6989C14.4467 15.8998 14.7096 15.9999 14.9724 15.9999C15.2353 15.9999 15.4981 15.8995 15.699 15.6989C16.1003 15.2975 16.1003 14.6472 15.699 14.2458L9.4531 7.99964Z" fill="black"/>
</svg>
